<svg width="1600" height="1051" viewBox="0 0 1600 1051" fill="none" xmlns="http://www.w3.org/2000/svg">
<line x1="267.168" y1="1" x2="267.168" y2="1051" stroke="white" stroke-opacity="0.2"/>
<line x1="533.836" y1="1" x2="533.836" y2="1051" stroke="white" stroke-opacity="0.2"/>
<line x1="800.5" y1="1" x2="800.5" y2="1051" stroke="white" stroke-opacity="0.2"/>
<line x1="1067.16" y1="1" x2="1067.16" y2="1051" stroke="white" stroke-opacity="0.2"/>
<line x1="1333.84" y1="1" x2="1333.84" y2="1051" stroke="white" stroke-opacity="0.2"/>
<line x1="1600.5" y1="1" x2="1600.5" y2="1051" stroke="white" stroke-opacity="0.2"/>
<line x1="-6.10001e-05" y1="748.918" x2="1595.02" y2="748.918" stroke="white" stroke-opacity="0.2"/>
<line x1="-6.1e-05" y1="599.234" x2="1595.02" y2="599.234" stroke="white" stroke-opacity="0.2"/>
<line x1="-6.1e-05" y1="449.551" x2="1595.02" y2="449.551" stroke="white" stroke-opacity="0.2"/>
<line x1="-6.1e-05" y1="299.867" x2="1595.02" y2="299.867" stroke="white" stroke-opacity="0.2"/>
<line x1="-6.10001e-05" y1="150.184" x2="1595.02" y2="150.184" stroke="white" stroke-opacity="0.2"/>
<line x1="-6.10001e-05" y1="0.5" x2="1595.02" y2="0.500044" stroke="white" stroke-opacity="0.2"/>
<line x1="-6.10133e-05" y1="898.602" x2="1595.02" y2="898.602" stroke="white" stroke-opacity="0.2"/>
</svg>
