<svg viewBox="0 0 96 96" xmlns="http://www.w3.org/2000/svg" xmlnsXlink="http://www.w3.org/1999/xlink" xmlSpace="preserve" overflow="hidden"><defs><clipPath id="clip0"><rect x="172" y="190" width="96" height="96"/></clipPath></defs><g transform="translate(-172 -190)"><path d="M241 256 241 237.823 217.175 250.177 217.175 237.823 193.352 250.177 190.7 214 183.646 214 181 250.177 181 274 259 274 259 256ZM198.646 267.823 188.058 267.823 188.058 259.882 198.646 259.882ZM216.293 267.823 205.705 267.823 205.705 259.882 216.293 259.882ZM233.94 267.823 223.352 267.823 223.352 259.882 233.94 259.882Z" fill="#C55A11"/><path d="M203.2 204.487C202.472 205.16 201.349 205.16 200.621 204.487 199.082 203.046 197.045 202.258 194.937 202.287L194.194 202.302C189.326 202.175 185.271 206.008 185.124 210.876L185.124 212 189.184 212 189.184 211.352C189.142 209.159 190.858 207.334 193.049 207.241L193.6 207.2C195.267 206.991 196.941 207.53 198.174 208.671L201.051 211.397C202.524 212.765 204.519 213.423 206.517 213.2 206.638 214.443 207.207 215.599 208.117 216.454 210.506 218.574 214.122 218.501 216.424 216.287 216.769 215.96 217.072 215.593 217.329 215.193 219.921 215.947 222.718 215.274 224.683 213.423 227.374 211.048 227.63 206.94 225.255 204.248 225.141 204.119 225.022 203.995 224.898 203.875 221.994 201.298 217.597 201.385 214.798 204.075 214.063 204.737 212.947 204.737 212.212 204.075 209.787 201.833 206.045 201.833 203.62 204.075Z" fill="#C55A11"/></g></svg>