<svg viewBox="0 0 96 96" xmlns="http://www.w3.org/2000/svg" xmlnsXlink="http://www.w3.org/1999/xlink" xmlSpace="preserve" overflow="hidden"><defs><clipPath id="clip0"><rect x="172" y="312" width="96" height="96"/></clipPath></defs><g transform="translate(-172 -312)"><path d="M241 378 241 359.823 217.175 372.177 217.175 359.823 193.352 372.177 190.7 336 183.646 336 181 372.177 181 396 259 396 259 378ZM198.646 389.823 188.058 389.823 188.058 381.882 198.646 381.882ZM216.293 389.823 205.705 389.823 205.705 381.882 216.293 381.882ZM233.94 389.823 223.352 389.823 223.352 381.882 233.94 381.882Z" fill="#548235"/><path d="M203.2 326.487C202.472 327.16 201.349 327.16 200.621 326.487 199.082 325.046 197.045 324.258 194.937 324.287L194.194 324.302C189.326 324.175 185.271 328.008 185.124 332.876L185.124 334 189.184 334 189.184 333.352C189.142 331.159 190.858 329.334 193.049 329.241L193.6 329.2C195.267 328.991 196.941 329.53 198.174 330.671L201.051 333.397C202.524 334.765 204.519 335.423 206.517 335.2 206.638 336.443 207.207 337.599 208.117 338.454 210.506 340.573 214.122 340.501 216.424 338.287 216.769 337.96 217.072 337.593 217.329 337.193 219.921 337.947 222.718 337.274 224.683 335.423 227.374 333.047 227.63 328.94 225.255 326.248 225.141 326.119 225.022 325.995 224.898 325.875 221.994 323.297 217.597 323.385 214.798 326.075 214.063 326.737 212.947 326.737 212.212 326.075 209.787 323.833 206.045 323.833 203.62 326.075Z" fill="#548235"/></g></svg>